<svg data-v-423bf9ae="" xmlns="http://www.w3.org/2000/svg" viewBox="0 0 510.56075157853894 60" class="font"><!----><!----><!----><g data-v-423bf9ae="" id="2069636c-ad6c-48bd-8fa5-8e968fdb1162" fill="white" transform="matrix(4.672897140729944,0,0,4.672897140729944,-5.280377989266867,-20.233644262846894)"><path d="M7.04 13.47L6.90 14.52L1.13 14.52L1.13 4.33L6.84 4.33L6.98 5.39L2.52 5.39L2.52 8.66L6.33 8.66L6.33 9.77L2.52 9.77L2.52 13.47L7.04 13.47ZM11.85 10.67L14.18 14.52L12.77 14.52L11.09 11.58L9.40 14.52L8.00 14.52L10.36 10.66L8.05 7.02L9.46 7.02L11.09 9.82L12.74 7.02L14.12 7.02L11.85 10.67ZM21.75 10.82L21.75 10.82L21.75 10.82Q21.75 11.45 21.73 11.89L21.73 11.89L21.73 11.89Q21.70 12.33 21.64 12.76L21.64 12.76L21.64 12.76Q21.57 13.19 21.45 13.46L21.45 13.46L21.45 13.46Q21.32 13.73 21.12 13.98L21.12 13.98L21.12 13.98Q20.92 14.22 20.62 14.35L20.62 14.35L20.62 14.35Q20.33 14.48 19.93 14.55L19.93 14.55L19.93 14.55Q19.54 14.62 19.01 14.62L19.01 14.62L19.01 14.62Q17.21 14.62 16.95 13.82L16.95 13.82L16.95 17.06L15.60 17.17L15.60 7.02L16.82 7.02L16.95 7.85L16.95 7.85Q17.37 6.81 19.14 6.81L19.14 6.81L19.14 6.81Q19.50 6.81 19.80 6.84L19.80 6.84L19.80 6.84Q20.10 6.87 20.34 6.95L20.34 6.95L20.34 6.95Q20.58 7.03 20.77 7.13L20.77 7.13L20.77 7.13Q20.96 7.23 21.11 7.39L21.11 7.39L21.11 7.39Q21.25 7.56 21.36 7.73L21.36 7.73L21.36 7.73Q21.46 7.90 21.53 8.17L21.53 8.17L21.53 8.17Q21.60 8.43 21.65 8.68L21.65 8.68L21.65 8.68Q21.69 8.93 21.71 9.30L21.71 9.30L21.71 9.30Q21.74 9.67 21.75 10.00L21.75 10.00L21.75 10.00Q21.75 10.34 21.75 10.82ZM20.41 10.38L20.41 10.38L20.41 10.38Q20.39 9.00 20.36 8.56L20.36 8.56L20.36 8.56Q20.34 8.08 20.01 7.92L20.01 7.92L20.01 7.92Q19.67 7.75 18.70 7.75L18.70 7.75L18.70 7.75Q17.46 7.75 17.11 8.15L17.11 8.15L17.11 8.15Q16.92 8.43 16.92 9.78L16.92 9.78L16.92 9.78Q16.92 10.06 16.93 10.60L16.93 10.60L16.93 10.60Q16.94 11.14 16.94 11.38L16.94 11.38L16.94 11.38Q16.94 11.61 16.92 11.99L16.92 11.99L16.92 11.99Q16.91 12.37 16.91 12.51L16.91 12.51L16.91 12.51Q16.91 12.93 17.04 13.17L17.04 13.17L17.04 13.17Q17.17 13.41 17.57 13.55L17.57 13.55L17.57 13.55Q17.97 13.69 18.70 13.69L18.70 13.69L18.70 13.69Q19.69 13.69 20.04 13.52L20.04 13.52L20.04 13.52Q20.42 13.34 20.42 11.68L20.42 11.68L20.42 11.68Q20.42 11.43 20.41 10.99L20.41 10.99L20.41 10.99Q20.41 10.54 20.41 10.38ZM29.53 10.66L29.53 10.66L29.53 10.66Q28.71 10.75 28.51 10.76L28.51 10.76L24.79 10.76L24.79 10.76Q24.79 11.75 24.84 12.93L24.84 12.93L24.84 12.93Q24.88 13.39 25.23 13.54L25.23 13.54L25.23 13.54Q25.59 13.69 26.63 13.69L26.63 13.69L26.63 13.69Q27.02 13.69 27.30 13.65L27.30 13.65L27.30 13.65Q27.58 13.62 27.76 13.55L27.76 13.55L27.76 13.55Q27.93 13.47 28.03 13.40L28.03 13.40L28.03 13.40Q28.13 13.32 28.18 13.17L28.18 13.17L28.18 13.17Q28.23 13.02 28.24 12.91L28.24 12.91L28.24 12.91Q28.25 12.80 28.27 12.59L28.27 12.59L28.27 12.59Q28.28 12.37 28.30 12.24L28.30 12.24L29.35 12.43L29.35 12.43Q29.33 12.91 29.28 13.24L29.28 13.24L29.28 13.24Q29.22 13.57 29.09 13.82L29.09 13.82L29.09 13.82Q28.96 14.08 28.79 14.22L28.79 14.22L28.79 14.22Q28.61 14.37 28.31 14.46L28.31 14.46L28.31 14.46Q28.01 14.56 27.64 14.59L27.64 14.59L27.64 14.59Q27.28 14.62 26.75 14.62L26.75 14.62L26.75 14.62Q26.07 14.62 25.56 14.54L25.56 14.54L25.56 14.54Q25.05 14.46 24.69 14.35L24.69 14.35L24.69 14.35Q24.34 14.23 24.10 13.97L24.10 13.97L24.10 13.97Q23.87 13.71 23.74 13.47L23.74 13.47L23.74 13.47Q23.60 13.23 23.54 12.76L23.54 12.76L23.54 12.76Q23.48 12.30 23.46 11.92L23.46 11.92L23.46 11.92Q23.45 11.54 23.45 10.87L23.45 10.87L23.45 10.87Q23.45 9.93 23.47 9.40L23.47 9.40L23.47 9.40Q23.50 8.87 23.60 8.34L23.60 8.34L23.60 8.34Q23.71 7.81 23.90 7.57L23.90 7.57L23.90 7.57Q24.08 7.33 24.45 7.13L24.45 7.13L24.45 7.13Q24.81 6.92 25.30 6.87L25.30 6.87L25.30 6.87Q25.79 6.81 26.55 6.81L26.55 6.81L26.55 6.81Q27.08 6.81 27.46 6.84L27.46 6.84L27.46 6.84Q27.84 6.87 28.16 6.97L28.16 6.97L28.16 6.97Q28.49 7.06 28.69 7.18L28.69 7.18L28.69 7.18Q28.90 7.31 29.06 7.55L29.06 7.55L29.06 7.55Q29.22 7.79 29.31 8.04L29.31 8.04L29.31 8.04Q29.39 8.30 29.45 8.72L29.45 8.72L29.45 8.72Q29.50 9.15 29.52 9.58L29.52 9.58L29.52 9.58Q29.53 10.01 29.53 10.66ZM24.79 10.04L24.79 10.04L28.18 10.04L28.18 10.04Q28.17 9.17 28.12 8.44L28.12 8.44L28.12 8.44Q28.09 8.03 27.76 7.89L27.76 7.89L27.76 7.89Q27.43 7.75 26.54 7.75L26.54 7.75L26.54 7.75Q25.57 7.75 25.31 7.85L25.31 7.85L25.31 7.85Q25.19 7.89 25.10 7.97L25.10 7.97L25.10 7.97Q25.02 8.06 24.96 8.22L24.96 8.22L24.96 8.22Q24.91 8.37 24.88 8.51L24.88 8.51L24.88 8.51Q24.85 8.65 24.83 8.89L24.83 8.89L24.83 8.89Q24.81 9.13 24.81 9.27L24.81 9.27L24.81 9.27Q24.80 9.40 24.80 9.67L24.80 9.67L24.80 9.67Q24.79 9.95 24.79 10.04ZM37.28 10.36L37.28 14.52L35.94 14.52L35.94 9.98L35.94 9.98Q35.94 9.54 35.93 9.28L35.93 9.28L35.93 9.28Q35.93 9.02 35.91 8.75L35.91 8.75L35.91 8.75Q35.88 8.48 35.85 8.35L35.85 8.35L35.85 8.35Q35.83 8.22 35.76 8.08L35.76 8.08L35.76 8.08Q35.68 7.95 35.61 7.90L35.61 7.90L35.61 7.90Q35.53 7.85 35.39 7.81L35.39 7.81L35.39 7.81Q35.25 7.77 35.10 7.76L35.10 7.76L35.10 7.76Q34.96 7.75 34.72 7.75L34.72 7.75L34.72 7.75Q34.20 7.75 33.83 7.81L33.83 7.81L33.83 7.81Q33.47 7.87 33.24 7.97L33.24 7.97L33.24 7.97Q33.00 8.07 32.88 8.26L32.88 8.26L32.88 8.26Q32.75 8.44 32.70 8.66L32.70 8.66L32.70 8.66Q32.66 8.87 32.66 9.19L32.66 9.19L32.66 9.19Q32.66 9.37 32.68 9.81L32.68 9.81L32.68 9.81Q32.70 10.25 32.70 10.52L32.70 10.52L32.70 14.52L31.35 14.52L31.35 7.02L32.58 7.02L32.71 7.86L32.71 7.86Q32.89 7.30 33.50 7.05L33.50 7.05L33.50 7.05Q34.10 6.81 34.95 6.81L34.95 6.81L34.95 6.81Q35.34 6.81 35.65 6.86L35.65 6.86L35.65 6.86Q35.96 6.90 36.20 7.02L36.20 7.02L36.20 7.02Q36.44 7.13 36.61 7.27L36.61 7.27L36.61 7.27Q36.78 7.42 36.90 7.65L36.90 7.65L36.90 7.65Q37.02 7.89 37.10 8.13L37.10 8.13L37.10 8.13Q37.17 8.38 37.21 8.75L37.21 8.75L37.21 8.75Q37.26 9.12 37.27 9.48L37.27 9.48L37.27 9.48Q37.28 9.85 37.28 10.36L37.28 10.36ZM44.78 12.44L44.78 12.44L44.78 12.44Q44.78 13.10 44.64 13.52L44.64 13.52L44.64 13.52Q44.50 13.94 44.16 14.18L44.16 14.18L44.16 14.18Q43.83 14.43 43.36 14.53L43.36 14.53L43.36 14.53Q42.88 14.62 42.16 14.62L42.16 14.62L42.16 14.62Q41.73 14.62 41.48 14.62L41.48 14.62L41.48 14.62Q41.22 14.61 40.89 14.58L40.89 14.58L40.89 14.58Q40.55 14.55 40.35 14.50L40.35 14.50L40.35 14.50Q40.15 14.44 39.93 14.34L39.93 14.34L39.93 14.34Q39.70 14.24 39.57 14.09L39.57 14.09L39.57 14.09Q39.44 13.93 39.32 13.72L39.32 13.72L39.32 13.72Q39.20 13.51 39.16 13.22L39.16 13.22L39.16 13.22Q39.11 12.93 39.11 12.56L39.11 12.56L40.17 12.28L40.17 12.28Q40.23 13.06 40.31 13.27L40.31 13.27L40.31 13.27Q40.43 13.55 40.82 13.62L40.82 13.62L40.82 13.62Q41.12 13.69 42.06 13.69L42.06 13.69L42.06 13.69Q42.63 13.69 42.91 13.63L42.91 13.63L42.91 13.63Q43.18 13.58 43.28 13.44L43.28 13.44L43.28 13.44Q43.55 13.21 43.55 11.90L43.55 11.90L43.55 11.90Q43.55 11.70 43.47 11.56L43.47 11.56L43.47 11.56Q43.39 11.42 43.27 11.35L43.27 11.35L43.27 11.35Q43.16 11.28 42.95 11.23L42.95 11.23L42.95 11.23Q42.74 11.18 42.57 11.16L42.57 11.16L42.57 11.16Q42.40 11.14 42.13 11.12L42.13 11.12L42.13 11.12Q41.86 11.09 41.69 11.07L41.69 11.07L41.69 11.07Q41.19 11.01 40.88 10.96L40.88 10.96L40.88 10.96Q40.56 10.91 40.24 10.81L40.24 10.81L40.24 10.81Q39.92 10.71 39.74 10.55L39.74 10.55L39.74 10.55Q39.56 10.40 39.41 10.17L39.41 10.17L39.41 10.17Q39.26 9.93 39.20 9.59L39.20 9.59L39.20 9.59Q39.14 9.26 39.14 8.79L39.14 8.79L39.14 8.79Q39.14 8.30 39.24 7.96L39.24 7.96L39.24 7.96Q39.34 7.62 39.54 7.39L39.54 7.39L39.54 7.39Q39.74 7.16 40.08 7.04L40.08 7.04L40.08 7.04Q40.43 6.91 40.86 6.86L40.86 6.86L40.86 6.86Q41.29 6.81 41.91 6.81L41.91 6.81L41.91 6.81Q42.30 6.81 42.55 6.82L42.55 6.82L42.55 6.82Q42.80 6.83 43.10 6.87L43.10 6.87L43.10 6.87Q43.39 6.90 43.58 6.97L43.58 6.97L43.58 6.97Q43.76 7.04 43.95 7.16L43.95 7.16L43.95 7.16Q44.14 7.29 44.24 7.47L44.24 7.47L44.24 7.47Q44.34 7.65 44.41 7.91L44.41 7.91L44.41 7.91Q44.47 8.17 44.47 8.50L44.47 8.50L43.56 8.78L43.56 8.78Q43.53 8.52 43.51 8.36L43.51 8.36L43.51 8.36Q43.48 8.21 43.40 8.08L43.40 8.08L43.40 8.08Q43.32 7.95 43.23 7.90L43.23 7.90L43.23 7.90Q43.14 7.84 42.93 7.80L42.93 7.80L42.93 7.80Q42.71 7.76 42.49 7.75L42.49 7.75L42.49 7.75Q42.27 7.75 41.86 7.75L41.86 7.75L41.86 7.75Q40.99 7.75 40.68 7.92L40.68 7.92L40.68 7.92Q40.37 8.09 40.37 8.49L40.37 8.49L40.37 9.19L40.37 9.19Q40.37 9.64 40.64 9.76L40.64 9.76L40.64 9.76Q40.91 9.88 42.08 10.03L42.08 10.03L42.08 10.03Q42.21 10.05 42.27 10.06L42.27 10.06L42.27 10.06Q42.74 10.11 43.02 10.16L43.02 10.16L43.02 10.16Q43.29 10.21 43.60 10.28L43.60 10.28L43.60 10.28Q43.91 10.36 44.07 10.47L44.07 10.47L44.07 10.47Q44.23 10.58 44.39 10.74L44.39 10.74L44.39 10.74Q44.55 10.90 44.62 11.14L44.62 11.14L44.62 11.14Q44.69 11.38 44.74 11.70L44.74 11.70L44.74 11.70Q44.78 12.01 44.78 12.44ZM52.35 10.66L52.35 10.66L52.35 10.66Q51.53 10.75 51.33 10.76L51.33 10.76L47.61 10.76L47.61 10.76Q47.61 11.75 47.66 12.93L47.66 12.93L47.66 12.93Q47.69 13.39 48.05 13.54L48.05 13.54L48.05 13.54Q48.41 13.69 49.45 13.69L49.45 13.69L49.45 13.69Q49.84 13.69 50.12 13.65L50.12 13.65L50.12 13.65Q50.40 13.62 50.58 13.55L50.58 13.55L50.58 13.55Q50.75 13.47 50.85 13.40L50.85 13.40L50.85 13.40Q50.95 13.32 51.00 13.17L51.00 13.17L51.00 13.17Q51.04 13.02 51.06 12.91L51.06 12.91L51.06 12.91Q51.07 12.80 51.08 12.59L51.08 12.59L51.08 12.59Q51.10 12.37 51.12 12.24L51.12 12.24L52.17 12.43L52.17 12.43Q52.15 12.91 52.10 13.24L52.10 13.24L52.10 13.24Q52.04 13.57 51.91 13.82L51.91 13.82L51.91 13.82Q51.78 14.08 51.60 14.22L51.60 14.22L51.60 14.22Q51.43 14.37 51.13 14.46L51.13 14.46L51.13 14.46Q50.83 14.56 50.46 14.59L50.46 14.59L50.46 14.59Q50.10 14.62 49.57 14.62L49.57 14.62L49.57 14.62Q48.88 14.62 48.38 14.54L48.38 14.54L48.38 14.54Q47.87 14.46 47.51 14.35L47.51 14.35L47.51 14.35Q47.15 14.23 46.92 13.97L46.92 13.97L46.92 13.97Q46.69 13.71 46.56 13.47L46.56 13.47L46.56 13.47Q46.42 13.23 46.36 12.76L46.36 12.76L46.36 12.76Q46.30 12.30 46.28 11.92L46.28 11.92L46.28 11.92Q46.27 11.54 46.27 10.87L46.27 10.87L46.27 10.87Q46.27 9.93 46.29 9.40L46.29 9.40L46.29 9.40Q46.31 8.87 46.42 8.34L46.42 8.34L46.42 8.34Q46.53 7.81 46.72 7.57L46.72 7.57L46.72 7.57Q46.90 7.33 47.26 7.13L47.26 7.13L47.26 7.13Q47.63 6.92 48.12 6.87L48.12 6.87L48.12 6.87Q48.61 6.81 49.37 6.81L49.37 6.81L49.37 6.81Q49.90 6.81 50.28 6.84L50.28 6.84L50.28 6.84Q50.66 6.87 50.98 6.97L50.98 6.97L50.98 6.97Q51.30 7.06 51.51 7.18L51.51 7.18L51.51 7.18Q51.72 7.31 51.88 7.55L51.88 7.55L51.88 7.55Q52.04 7.79 52.13 8.04L52.13 8.04L52.13 8.04Q52.21 8.30 52.27 8.72L52.27 8.72L52.27 8.72Q52.32 9.15 52.34 9.58L52.34 9.58L52.34 9.58Q52.35 10.01 52.35 10.66ZM47.61 10.04L47.61 10.04L51.00 10.04L51.00 10.04Q50.99 9.17 50.93 8.44L50.93 8.44L50.93 8.44Q50.91 8.03 50.58 7.89L50.58 7.89L50.58 7.89Q50.24 7.75 49.36 7.75L49.36 7.75L49.36 7.75Q48.38 7.75 48.13 7.85L48.13 7.85L48.13 7.85Q48.01 7.89 47.92 7.97L47.92 7.97L47.92 7.97Q47.84 8.06 47.78 8.22L47.78 8.22L47.78 8.22Q47.73 8.37 47.70 8.51L47.70 8.51L47.70 8.51Q47.67 8.65 47.65 8.89L47.65 8.89L47.65 8.89Q47.63 9.13 47.63 9.27L47.63 9.27L47.63 9.27Q47.62 9.40 47.62 9.67L47.62 9.67L47.62 9.67Q47.61 9.95 47.61 10.04ZM64.05 7.14L64.05 7.14L64.05 7.14Q64.05 8.44 63.55 9.07L63.55 9.07L63.55 9.07Q63.06 9.71 62.18 9.85L62.18 9.85L62.18 9.85Q63.49 10.12 63.74 11.52L63.74 11.52L64.26 14.52L62.78 14.52L62.78 14.52Q62.73 14.21 62.65 13.61L62.65 13.61L62.65 13.61Q62.58 13.01 62.52 12.60L62.52 12.60L62.52 12.60Q62.46 12.18 62.36 11.72L62.36 11.72L62.36 11.72Q62.25 11.25 62.09 10.94L62.09 10.94L62.09 10.94Q61.92 10.62 61.69 10.47L61.69 10.47L61.69 10.47Q61.32 10.32 60.48 10.32L60.48 10.32L58.37 10.32L58.37 14.52L56.98 14.52L56.98 4.33L60.09 4.33L60.09 4.33Q60.59 4.33 60.93 4.34L60.93 4.34L60.93 4.34Q61.28 4.35 61.66 4.39L61.66 4.39L61.66 4.39Q62.04 4.42 62.30 4.48L62.30 4.48L62.30 4.48Q62.56 4.55 62.83 4.65L62.83 4.65L62.83 4.65Q63.10 4.75 63.28 4.90L63.28 4.90L63.28 4.90Q63.45 5.05 63.61 5.26L63.61 5.26L63.61 5.26Q63.77 5.47 63.85 5.74L63.85 5.74L63.85 5.74Q63.94 6.01 63.99 6.36L63.99 6.36L63.99 6.36Q64.05 6.71 64.05 7.14ZM62.68 7.68L62.68 7.68L62.68 6.73L62.68 6.73Q62.68 6.47 62.67 6.32L62.67 6.32L62.67 6.32Q62.66 6.17 62.62 6.01L62.62 6.01L62.62 6.01Q62.58 5.84 62.49 5.75L62.49 5.75L62.49 5.75Q62.41 5.67 62.27 5.58L62.27 5.58L62.27 5.58Q62.13 5.50 61.90 5.46L61.90 5.46L61.90 5.46Q61.68 5.43 61.38 5.40L61.38 5.40L61.38 5.40Q61.09 5.38 60.67 5.38L60.67 5.38L58.37 5.38L58.37 9.23L60.75 9.23L60.75 9.23Q61.28 9.23 61.62 9.17L61.62 9.17L61.62 9.17Q61.96 9.12 62.18 9.02L62.18 9.02L62.18 9.02Q62.39 8.92 62.50 8.72L62.50 8.72L62.50 8.72Q62.61 8.52 62.64 8.29L62.64 8.29L62.64 8.29Q62.68 8.06 62.68 7.68ZM71.84 10.66L71.84 10.66L71.84 10.66Q71.02 10.75 70.82 10.76L70.82 10.76L67.09 10.76L67.09 10.76Q67.10 11.75 67.15 12.93L67.15 12.93L67.15 12.93Q67.18 13.39 67.54 13.54L67.54 13.54L67.54 13.54Q67.90 13.69 68.94 13.69L68.94 13.69L68.94 13.69Q69.33 13.69 69.61 13.65L69.61 13.65L69.61 13.65Q69.89 13.62 70.06 13.55L70.06 13.55L70.06 13.55Q70.24 13.47 70.34 13.40L70.34 13.40L70.34 13.40Q70.44 13.32 70.49 13.17L70.49 13.17L70.49 13.17Q70.53 13.02 70.55 12.91L70.55 12.91L70.55 12.91Q70.56 12.80 70.57 12.59L70.57 12.59L70.57 12.59Q70.59 12.37 70.61 12.24L70.61 12.24L71.65 12.43L71.65 12.43Q71.64 12.91 71.59 13.24L71.59 13.24L71.59 13.24Q71.53 13.57 71.40 13.82L71.40 13.82L71.40 13.82Q71.27 14.08 71.09 14.22L71.09 14.22L71.09 14.22Q70.92 14.37 70.62 14.46L70.62 14.46L70.62 14.46Q70.31 14.56 69.95 14.59L69.95 14.59L69.95 14.59Q69.59 14.62 69.06 14.62L69.06 14.62L69.06 14.62Q68.37 14.62 67.87 14.54L67.87 14.54L67.87 14.54Q67.36 14.46 67.00 14.35L67.00 14.35L67.00 14.35Q66.64 14.23 66.41 13.97L66.41 13.97L66.41 13.97Q66.18 13.71 66.05 13.47L66.05 13.47L66.05 13.47Q65.91 13.23 65.85 12.76L65.85 12.76L65.85 12.76Q65.79 12.30 65.77 11.92L65.77 11.92L65.77 11.92Q65.75 11.54 65.75 10.87L65.75 10.87L65.75 10.87Q65.75 9.93 65.78 9.40L65.78 9.40L65.78 9.40Q65.80 8.87 65.91 8.34L65.91 8.34L65.91 8.34Q66.02 7.81 66.21 7.57L66.21 7.57L66.21 7.57Q66.39 7.33 66.75 7.13L66.75 7.13L66.75 7.13Q67.12 6.92 67.61 6.87L67.61 6.87L67.61 6.87Q68.10 6.81 68.86 6.81L68.86 6.81L68.86 6.81Q69.38 6.81 69.77 6.84L69.77 6.84L69.77 6.84Q70.15 6.87 70.47 6.97L70.47 6.97L70.47 6.97Q70.79 7.06 71.00 7.18L71.00 7.18L71.00 7.18Q71.21 7.31 71.37 7.55L71.37 7.55L71.37 7.55Q71.53 7.79 71.62 8.04L71.62 8.04L71.62 8.04Q71.70 8.30 71.76 8.72L71.76 8.72L71.76 8.72Q71.81 9.15 71.83 9.58L71.83 9.58L71.83 9.58Q71.84 10.01 71.84 10.66ZM67.10 10.04L67.10 10.04L70.49 10.04L70.49 10.04Q70.48 9.17 70.42 8.44L70.42 8.44L70.42 8.44Q70.40 8.03 70.06 7.89L70.06 7.89L70.06 7.89Q69.73 7.75 68.85 7.75L68.85 7.75L68.85 7.75Q67.87 7.75 67.61 7.85L67.61 7.85L67.61 7.85Q67.50 7.89 67.41 7.97L67.41 7.97L67.41 7.97Q67.33 8.06 67.27 8.22L67.27 8.22L67.27 8.22Q67.22 8.37 67.19 8.51L67.19 8.51L67.19 8.51Q67.16 8.65 67.14 8.89L67.14 8.89L67.14 8.89Q67.12 9.13 67.12 9.27L67.12 9.27L67.12 9.27Q67.11 9.40 67.10 9.67L67.10 9.67L67.10 9.67Q67.10 9.95 67.10 10.04ZM79.81 10.82L79.81 10.82L79.81 10.82Q79.81 11.45 79.79 11.89L79.79 11.89L79.79 11.89Q79.76 12.33 79.70 12.76L79.70 12.76L79.70 12.76Q79.63 13.19 79.51 13.46L79.51 13.46L79.51 13.46Q79.38 13.73 79.18 13.98L79.18 13.98L79.18 13.98Q78.98 14.22 78.68 14.35L78.68 14.35L78.68 14.35Q78.39 14.48 77.99 14.55L77.99 14.55L77.99 14.55Q77.59 14.62 77.07 14.62L77.07 14.62L77.07 14.62Q75.26 14.62 75.00 13.82L75.00 13.82L75.00 17.06L73.66 17.17L73.66 7.02L74.88 7.02L75.01 7.85L75.01 7.85Q75.43 6.81 77.20 6.81L77.20 6.81L77.20 6.81Q77.56 6.81 77.86 6.84L77.86 6.84L77.86 6.84Q78.16 6.87 78.40 6.95L78.40 6.95L78.40 6.95Q78.64 7.03 78.83 7.13L78.83 7.13L78.83 7.13Q79.02 7.23 79.16 7.39L79.16 7.39L79.16 7.39Q79.31 7.56 79.41 7.73L79.41 7.73L79.41 7.73Q79.52 7.90 79.59 8.17L79.59 8.17L79.59 8.17Q79.66 8.43 79.70 8.68L79.70 8.68L79.70 8.68Q79.75 8.93 79.77 9.30L79.77 9.30L79.77 9.30Q79.80 9.67 79.80 10.00L79.80 10.00L79.80 10.00Q79.81 10.34 79.81 10.82ZM78.46 10.38L78.46 10.38L78.46 10.38Q78.45 9.00 78.42 8.56L78.42 8.56L78.42 8.56Q78.39 8.08 78.06 7.92L78.06 7.92L78.06 7.92Q77.73 7.75 76.75 7.75L76.75 7.75L76.75 7.75Q75.52 7.75 75.17 8.15L75.17 8.15L75.17 8.15Q74.98 8.43 74.98 9.78L74.98 9.78L74.98 9.78Q74.98 10.06 74.99 10.60L74.99 10.60L74.99 10.60Q75.00 11.14 75.00 11.38L75.00 11.38L75.00 11.38Q75.00 11.61 74.98 11.99L74.98 11.99L74.98 11.99Q74.96 12.37 74.96 12.51L74.96 12.51L74.96 12.51Q74.96 12.93 75.10 13.17L75.10 13.17L75.10 13.17Q75.23 13.41 75.63 13.55L75.63 13.55L75.63 13.55Q76.03 13.69 76.75 13.69L76.75 13.69L76.75 13.69Q77.75 13.69 78.10 13.52L78.10 13.52L78.10 13.52Q78.48 13.34 78.48 11.68L78.48 11.68L78.48 11.68Q78.48 11.43 78.47 10.99L78.47 10.99L78.47 10.99Q78.46 10.54 78.46 10.38ZM84.67 13.68L84.67 13.68L84.67 13.68Q85.64 13.66 86.02 13.54L86.02 13.54L86.02 13.54Q86.40 13.41 86.40 13.05L86.40 13.05L86.40 13.05Q86.47 12.07 86.47 10.79L86.47 10.79L86.47 10.79Q86.47 10.36 86.44 9.57L86.44 9.57L86.44 9.57Q86.41 8.78 86.41 8.40L86.41 8.40L86.41 8.40Q86.41 8.29 86.37 8.19L86.37 8.19L86.37 8.19Q86.33 8.09 86.25 8.03L86.25 8.03L86.25 8.03Q86.16 7.96 86.07 7.92L86.07 7.92L86.07 7.92Q85.99 7.87 85.84 7.84L85.84 7.84L85.84 7.84Q85.68 7.81 85.58 7.79L85.58 7.79L85.58 7.79Q85.47 7.77 85.27 7.77L85.27 7.77L85.27 7.77Q85.08 7.76 84.97 7.76L84.97 7.76L84.97 7.76Q84.87 7.76 84.66 7.76L84.66 7.76L84.66 7.76Q84.46 7.76 84.35 7.76L84.35 7.76L84.35 7.76Q84.25 7.76 84.05 7.77L84.05 7.77L84.05 7.77Q83.86 7.77 83.75 7.79L83.75 7.79L83.75 7.79Q83.64 7.81 83.49 7.84L83.49 7.84L83.49 7.84Q83.34 7.87 83.25 7.92L83.25 7.92L83.25 7.92Q83.17 7.96 83.08 8.03L83.08 8.03L83.08 8.03Q83.00 8.09 82.96 8.19L82.96 8.19L82.96 8.19Q82.92 8.29 82.92 8.40L82.92 8.40L82.92 8.40Q82.92 8.78 82.89 9.57L82.89 9.57L82.89 9.57Q82.85 10.36 82.85 10.79L82.85 10.79L82.85 10.79Q82.85 12.07 82.93 13.05L82.93 13.05L82.93 13.05Q82.93 13.41 83.33 13.55L83.33 13.55L83.33 13.55Q83.73 13.68 84.67 13.68ZM84.66 14.62L84.66 14.62L84.66 14.62Q83.90 14.62 83.39 14.56L83.39 14.56L83.39 14.56Q82.89 14.50 82.52 14.29L82.52 14.29L82.52 14.29Q82.15 14.08 81.96 13.85L81.96 13.85L81.96 13.85Q81.77 13.61 81.66 13.10L81.66 13.10L81.66 13.10Q81.55 12.59 81.53 12.09L81.53 12.09L81.53 12.09Q81.50 11.59 81.50 10.71L81.50 10.71L81.50 10.71Q81.50 10.04 81.52 9.60L81.52 9.60L81.52 9.60Q81.54 9.15 81.60 8.73L81.60 8.73L81.60 8.73Q81.66 8.30 81.75 8.04L81.75 8.04L81.75 8.04Q81.85 7.77 82.02 7.54L82.02 7.54L82.02 7.54Q82.20 7.30 82.41 7.18L82.41 7.18L82.41 7.18Q82.63 7.05 82.97 6.96L82.97 6.96L82.97 6.96Q83.31 6.87 83.71 6.84L83.71 6.84L83.71 6.84Q84.11 6.81 84.66 6.81L84.66 6.81L84.66 6.81Q85.22 6.81 85.62 6.84L85.62 6.84L85.62 6.84Q86.02 6.87 86.35 6.96L86.35 6.96L86.35 6.96Q86.69 7.05 86.91 7.18L86.91 7.18L86.91 7.18Q87.13 7.30 87.31 7.54L87.31 7.54L87.31 7.54Q87.48 7.77 87.57 8.04L87.57 8.04L87.57 8.04Q87.66 8.30 87.73 8.73L87.73 8.73L87.73 8.73Q87.79 9.15 87.80 9.60L87.80 9.60L87.80 9.60Q87.82 10.04 87.82 10.71L87.82 10.71L87.82 10.71Q87.82 11.59 87.80 12.09L87.80 12.09L87.80 12.09Q87.77 12.59 87.66 13.10L87.66 13.10L87.66 13.10Q87.55 13.61 87.36 13.85L87.36 13.85L87.36 13.85Q87.17 14.09 86.80 14.29L86.80 14.29L86.80 14.29Q86.43 14.50 85.93 14.56L85.93 14.56L85.93 14.56Q85.42 14.62 84.66 14.62ZM93.06 6.85L93.06 6.85L93.01 7.99L93.01 7.99Q92.75 7.96 92.52 7.96L92.52 7.96L92.52 7.96Q92.03 7.96 91.73 8.05L91.73 8.05L91.73 8.05Q91.43 8.15 91.28 8.38L91.28 8.38L91.28 8.38Q91.12 8.61 91.07 8.91L91.07 8.91L91.07 8.91Q91.02 9.21 91.02 9.71L91.02 9.71L91.02 9.71Q91.02 9.99 91.04 10.53L91.04 10.53L91.04 10.53Q91.07 11.07 91.07 11.30L91.07 11.30L91.07 14.52L89.72 14.52L89.72 7.02L90.95 7.02L91.08 7.86L91.08 7.86Q91.29 7.37 91.72 7.10L91.72 7.10L91.72 7.10Q92.16 6.83 92.76 6.83L92.76 6.83L92.76 6.83Q92.91 6.83 93.06 6.85ZM97.59 13.57L97.59 13.57L97.56 14.53L97.56 14.53Q96.99 14.62 96.52 14.62L96.52 14.62L96.52 14.62Q96.02 14.62 95.70 14.51L95.70 14.51L95.70 14.51Q95.38 14.40 95.21 14.16L95.21 14.16L95.21 14.16Q95.05 13.92 94.99 13.63L94.99 13.63L94.99 13.63Q94.92 13.34 94.92 12.89L94.92 12.89L94.92 7.79L93.91 7.79L93.91 7.02L94.92 7.02L94.92 4.89L96.26 4.78L96.26 7.02L97.64 7.02L97.64 7.79L96.26 7.79L96.26 12.43L96.26 12.43Q96.26 13.17 96.34 13.39L96.34 13.39L96.34 13.39Q96.41 13.61 96.73 13.61L96.73 13.61L96.73 13.61Q97.04 13.61 97.59 13.57ZM105.23 10.66L105.23 10.66L105.23 10.66Q104.41 10.75 104.21 10.76L104.21 10.76L100.48 10.76L100.48 10.76Q100.49 11.75 100.54 12.93L100.54 12.93L100.54 12.93Q100.57 13.39 100.93 13.54L100.93 13.54L100.93 13.54Q101.29 13.69 102.33 13.69L102.33 13.69L102.33 13.69Q102.72 13.69 103.00 13.65L103.00 13.65L103.00 13.65Q103.28 13.62 103.45 13.55L103.45 13.55L103.45 13.55Q103.63 13.47 103.73 13.40L103.73 13.40L103.73 13.40Q103.82 13.32 103.87 13.17L103.87 13.17L103.87 13.17Q103.92 13.02 103.93 12.91L103.93 12.91L103.93 12.91Q103.95 12.80 103.96 12.59L103.96 12.59L103.96 12.59Q103.97 12.37 104.00 12.24L104.00 12.24L105.04 12.43L105.04 12.43Q105.03 12.91 104.97 13.24L104.97 13.24L104.97 13.24Q104.92 13.57 104.79 13.82L104.79 13.82L104.79 13.82Q104.66 14.08 104.48 14.22L104.48 14.22L104.48 14.22Q104.30 14.37 104.00 14.46L104.00 14.46L104.00 14.46Q103.70 14.56 103.34 14.59L103.34 14.59L103.34 14.59Q102.98 14.62 102.44 14.62L102.44 14.62L102.44 14.62Q101.76 14.62 101.25 14.54L101.25 14.54L101.25 14.54Q100.75 14.46 100.39 14.35L100.39 14.35L100.39 14.35Q100.03 14.23 99.80 13.97L99.80 13.97L99.80 13.97Q99.57 13.71 99.43 13.47L99.43 13.47L99.43 13.47Q99.30 13.23 99.24 12.76L99.24 12.76L99.24 12.76Q99.18 12.30 99.16 11.92L99.16 11.92L99.16 11.92Q99.14 11.54 99.14 10.87L99.14 10.87L99.14 10.87Q99.14 9.93 99.17 9.40L99.17 9.40L99.17 9.40Q99.19 8.87 99.30 8.34L99.30 8.34L99.30 8.34Q99.41 7.81 99.59 7.57L99.59 7.57L99.59 7.57Q99.78 7.33 100.14 7.13L100.14 7.13L100.14 7.13Q100.50 6.92 100.99 6.87L100.99 6.87L100.99 6.87Q101.49 6.81 102.25 6.81L102.25 6.81L102.25 6.81Q102.77 6.81 103.15 6.84L103.15 6.84L103.15 6.84Q103.54 6.87 103.86 6.97L103.86 6.97L103.86 6.97Q104.18 7.06 104.39 7.18L104.39 7.18L104.39 7.18Q104.60 7.31 104.76 7.55L104.76 7.55L104.76 7.55Q104.92 7.79 105.00 8.04L105.00 8.04L105.00 8.04Q105.09 8.30 105.14 8.72L105.14 8.72L105.14 8.72Q105.20 9.15 105.21 9.58L105.21 9.58L105.21 9.58Q105.23 10.01 105.23 10.66ZM100.49 10.04L100.49 10.04L103.88 10.04L103.88 10.04Q103.87 9.17 103.81 8.44L103.81 8.44L103.81 8.44Q103.78 8.03 103.45 7.89L103.45 7.89L103.45 7.89Q103.12 7.75 102.24 7.75L102.24 7.75L102.24 7.75Q101.26 7.75 101.00 7.85L101.00 7.85L101.00 7.85Q100.88 7.89 100.80 7.97L100.80 7.97L100.80 7.97Q100.71 8.06 100.66 8.22L100.66 8.22L100.66 8.22Q100.60 8.37 100.57 8.51L100.57 8.51L100.57 8.51Q100.54 8.65 100.53 8.89L100.53 8.89L100.53 8.89Q100.51 9.13 100.50 9.27L100.50 9.27L100.50 9.27Q100.50 9.40 100.49 9.67L100.49 9.67L100.49 9.67Q100.49 9.95 100.49 10.04ZM110.39 6.85L110.39 6.85L110.34 7.99L110.34 7.99Q110.08 7.96 109.85 7.96L109.85 7.96L109.85 7.96Q109.36 7.96 109.06 8.05L109.06 8.05L109.06 8.05Q108.76 8.15 108.61 8.38L108.61 8.38L108.61 8.38Q108.45 8.61 108.40 8.91L108.40 8.91L108.40 8.91Q108.35 9.21 108.35 9.71L108.35 9.71L108.35 9.71Q108.35 9.99 108.37 10.53L108.37 10.53L108.37 10.53Q108.40 11.07 108.40 11.30L108.40 11.30L108.40 14.52L107.05 14.52L107.05 7.02L108.27 7.02L108.41 7.86L108.41 7.86Q108.62 7.37 109.05 7.10L109.05 7.10L109.05 7.10Q109.48 6.83 110.09 6.83L110.09 6.83L110.09 6.83Q110.24 6.83 110.39 6.85Z"></path></g><!----><!----></svg>